<svg xmlns="http://www.w3.org/2000/svg" viewBox="0 0 16 16" fill="currentColor">
  <path d="M4.5 4C2.567 4 1 5.567 1 7.5S2.567 11 4.5 11c1.08 0 2.053-.489 2.7-1.258L8 8.8l.8.942C9.447 10.511 10.42 11 11.5 11c1.933 0 3.5-1.567 3.5-3.5S13.433 4 11.5 4c-1.08 0-2.053.489-2.7 1.258L8 6.2l-.8-.942C6.553 4.489 5.58 4 4.5 4zm0 1.2c.72 0 1.368.326 1.8.838L8 8l-1.7 1.962c-.432.512-1.08.838-1.8.838C3.231 10.8 2.2 9.769 2.2 8.5S3.231 6.2 4.5 6.2zm7 0c1.269 0 2.3 1.031 2.3 2.3s-1.031 2.3-2.3 2.3c-.72 0-1.368-.326-1.8-.838L8 8l1.7-1.962c.432-.512 1.08-.838 1.8-.838z"/>
</svg>
